<svg xmlns="http://www.w3.org/2000/svg" xmlns:xlink="http://www.w3.org/1999/xlink" width="675" zoomAndPan="magnify" viewBox="0 0 506.25 360.749994" height="481" preserveAspectRatio="xMidYMid meet" version="1.2"><defs><clipPath id="58160a21b5"><path d="M 1 0.140625 L 501 0.140625 L 501 359.609375 L 1 359.609375 Z M 1 0.140625 "/></clipPath></defs><g id="d15bcaaee1"><path style="fill:none;stroke-width:4;stroke-linecap:butt;stroke-linejoin:miter;stroke:#2e4fe0;stroke-opacity:1;stroke-miterlimit:4;" d="M 0.000743584 2.000544 L 21.125557 2.000544 " transform="matrix(0,0.744459,-0.744459,0,16.829168,214.718196)"/><g clip-rule="nonzero" clip-path="url(#58160a21b5)"><path style=" stroke:none;fill-rule:nonzero;fill:#2e4fe0;fill-opacity:1;" d="M 257.660156 306.421875 L 101.382812 306.226562 C 100.890625 308.5 101.277344 311.597656 101.28125 313.949219 L 101.300781 330.707031 C 101.304688 334.667969 101.535156 338.828125 100.878906 342.742188 C 99.703125 349.738281 93.34375 358.011719 85.851562 359.042969 C 82.609375 359.488281 79.21875 359.3125 75.953125 359.3125 L 46.546875 359.289062 C 29.972656 359.253906 20.292969 353.785156 20.261719 335.007812 L 20.195312 292.980469 C 19.800781 292.15625 19.039062 291.617188 18.234375 291.207031 L 17.308594 290.765625 C 8.695312 285.5 7.984375 271.585938 6.984375 262.796875 L 2.46875 219.035156 C 1.609375 206.742188 1.273438 194.390625 2.855469 182.144531 C 5.4375 162.179688 11.480469 153 27.261719 139.675781 L 31.609375 136.09375 C 32.355469 135.492188 33.246094 134.925781 33.824219 134.167969 C 23.789062 130.777344 5.457031 129.101562 2.109375 116.75 L 2 116.324219 C -0.0078125 108.734375 4.148438 101.457031 9.949219 96.726562 C 18.863281 89.460938 30.824219 87.488281 42.011719 88.640625 C 50.136719 89.476562 56.359375 94.839844 61.285156 100.914062 C 72.6875 76.292969 93.171875 44.035156 111.710938 25.453125 C 126.34375 10.789062 138.855469 9.671875 158.527344 6.878906 C 186.882812 2.855469 215.578125 0.234375 244.222656 0.175781 L 275.464844 0.320312 L 341.5625 6.597656 C 379.402344 11.957031 386.230469 16.371094 409.707031 49.785156 C 420.050781 64.503906 429.417969 79.703125 437.570312 95.75 L 440.066406 101.222656 C 451.109375 87.03125 467.738281 84.484375 483.855469 92.261719 C 493.621094 96.972656 504.515625 107.832031 498.476562 119.535156 C 494.746094 126.761719 484.867188 128.945312 477.777344 130.96875 L 467.164062 134.214844 C 500.027344 157.339844 500.824219 179.535156 498.699219 217.699219 L 495.042969 256.128906 C 493.648438 267.160156 494.207031 284.992188 482.621094 291.136719 C 482.113281 291.402344 481.394531 291.757812 481.058594 292.242188 C 480.050781 293.707031 481.695312 337.140625 480.585938 343.199219 C 479.140625 351.0625 471.449219 357.832031 463.765625 359.050781 C 460.605469 359.550781 457.082031 359.28125 453.878906 359.285156 L 422.945312 359.289062 C 420.582031 359.28125 417.972656 359.484375 415.648438 359.085938 C 399.609375 356.351562 399.683594 341.132812 399.660156 328.992188 L 399.546875 306.230469 Z M 248.898438 17.097656 L 226.363281 17.214844 L 148.074219 25.601562 C 125.757812 29.347656 119.75 39.488281 106.800781 57.632812 C 98.261719 69.597656 79.632812 97.183594 75.082031 111.359375 C 87.3125 122.351562 108.542969 123.445312 124.609375 124.433594 C 130.203125 124.777344 135.917969 124.570312 141.523438 124.582031 L 253.113281 124.625 L 362.457031 124.597656 C 382.933594 124.570312 409.199219 123.820312 426.351562 111.683594 C 417.992188 93.0625 407.183594 76.027344 395.472656 59.367188 C 376.898438 32.941406 373.296875 28.058594 340.476562 23.300781 C 319.65625 20.28125 296.550781 18.070312 275.464844 17.292969 Z M 33.300781 104.917969 C 27.667969 105.71875 22.765625 107.253906 18.800781 111.539062 C 23.546875 115.152344 31.289062 116.027344 37.066406 117.113281 C 40.945312 117.738281 44.816406 118.527344 48.753906 118.539062 C 49.191406 115.867188 49.851562 114.214844 48.242188 111.953125 C 44.199219 106.261719 39.988281 104.308594 33.300781 104.917969 Z M 462.261719 105.152344 C 457.660156 106.675781 453.953125 110.355469 451.832031 114.695312 L 451.539062 115.328125 C 452.789062 118.730469 452.78125 118.863281 456.3125 118.460938 C 460.925781 117.9375 465.535156 116.78125 470.066406 115.8125 C 474.601562 114.6875 479.113281 113.621094 483.257812 111.394531 C 477.394531 106.273438 471.148438 104.566406 463.378906 105.058594 Z M 437.34375 124.335938 C 415.808594 139.003906 399.359375 139.699219 374.972656 140.550781 C 372.671875 140.632812 370.441406 141.160156 368.113281 141.234375 L 133.550781 141.253906 C 131.261719 141.191406 128.972656 140.625 126.632812 140.554688 C 107.914062 139.992188 89.40625 139.707031 72.671875 130.152344 L 63.746094 124.65625 C 57.539062 133.945312 51.152344 141.710938 42.609375 149.046875 C 37.433594 153.492188 31.335938 157.492188 27.121094 162.917969 C 17.925781 174.765625 18.136719 202.671875 19.136719 218.367188 L 23.941406 264.28125 C 24.273438 267.484375 24.472656 270.867188 25.167969 274 C 26.617188 280.546875 47.199219 284.28125 52.386719 285.015625 C 67.566406 287.222656 85.980469 288.960938 101.46875 289.5 L 383.324219 289.578125 C 388.851562 289.574219 394.503906 289.828125 400.015625 289.5 L 407.207031 288.800781 C 419.769531 288.0625 474.199219 287.246094 476.429688 271.589844 L 479.277344 244.898438 C 481.492188 224.191406 487.285156 180.816406 474.382812 163.644531 C 465.972656 152.457031 452.265625 145.910156 443.101562 132.648438 C 441.199219 129.898438 439.5 126.890625 437.34375 124.335938 Z M 37.117188 298.609375 L 37.152344 325.191406 C 37.171875 344.664062 35.695312 342.402344 53.917969 342.398438 L 79.652344 342.359375 C 81.027344 342.328125 82.332031 342.339844 83.40625 341.402344 C 85.453125 337.09375 84.5 331.644531 84.496094 327.011719 L 84.460938 305.210938 C 68.605469 303.425781 52.527344 303.28125 37.117188 298.609375 Z M 463.558594 298.875 C 456.074219 301.078125 449.207031 301.894531 442.074219 302.667969 L 427.796875 304.1875 C 424.203125 304.511719 420.09375 304.429688 416.605469 305.199219 L 416.601562 327.011719 C 416.605469 330.730469 415.414062 338.9375 418.144531 341.996094 C 420.449219 342.515625 422.863281 342.371094 425.191406 342.375 L 435.5625 342.367188 C 443.484375 342.359375 451.59375 342.730469 459.5 342.277344 C 462.816406 342.082031 463.777344 341.179688 463.902344 337.714844 Z M 463.558594 298.875 "/></g><path style=" stroke:none;fill-rule:nonzero;fill:#2e4fe0;fill-opacity:1;" d="M 443.410156 231.84375 C 431.988281 238.476562 419.660156 240.917969 406.59375 240.671875 C 389.886719 240.363281 376.601562 232.816406 363.382812 222.980469 C 343.359375 208.082031 331.117188 208.917969 307.90625 208.898438 L 210.539062 208.886719 C 197.316406 208.890625 183.878906 208.363281 170.722656 209.753906 C 154.109375 211.511719 148.585938 215.023438 134.964844 225.324219 C 119.554688 236.980469 101.796875 242.980469 82.476562 240.246094 C 67.144531 238.078125 51.636719 230.90625 42.226562 218.253906 C 28.953125 200.421875 29.65625 170.371094 56.019531 168.324219 C 63.769531 167.742188 73.988281 171.320312 81.332031 173.417969 C 96.539062 177.753906 127.578125 187.492188 139.042969 198.039062 C 141.921875 200.6875 141.28125 199.328125 145.179688 198.152344 L 154.632812 195.734375 C 173.210938 191.792969 191.738281 192.257812 210.597656 192.25 L 304.941406 192.261719 C 319.503906 192.265625 333.5625 192.328125 347.867188 195.820312 L 355.644531 197.996094 C 358.421875 198.859375 359.09375 199.886719 361.617188 198.1875 L 366.886719 194.828125 C 382.566406 185.371094 399.050781 179.261719 416.59375 174.136719 L 433.496094 169.71875 C 456.242188 164.945312 470.402344 176.816406 466.703125 199.777344 C 464.769531 211.765625 457.625 221.988281 447.828125 228.976562 Z M 55.285156 185.125 C 49.199219 186.835938 50.300781 194.070312 51.707031 198.800781 C 59.46875 224.933594 94.597656 229.304688 116.378906 217.78125 C 119.96875 215.769531 124.195312 213.402344 127.164062 210.542969 C 113.125 200.0625 74.242188 186.179688 55.285156 185.125 Z M 441.953125 185.414062 C 424.003906 188.175781 387.003906 199.257812 374.785156 209.964844 C 378.679688 213.996094 382.945312 217.085938 387.976562 219.558594 C 411.285156 230.261719 447.101562 221.46875 450.753906 192.9375 C 451.5 187.101562 447.683594 184.695312 441.953125 185.414062 Z M 441.953125 185.414062 "/><path style=" stroke:none;fill-rule:nonzero;fill:#2e4fe0;fill-opacity:1;" d="M 331.886719 239.136719 L 184.4375 239.136719 C 179.902344 239.128906 164.386719 240.433594 160.964844 237.726562 L 160.699219 237.503906 C 156.167969 233.816406 155.0625 228.28125 160.027344 224.46875 C 163.035156 222.160156 166.753906 222.210938 170.351562 222.089844 L 319.800781 222.089844 C 325.351562 222.089844 331.371094 221.636719 336.886719 222.230469 C 343.871094 222.984375 348.269531 231.007812 343.128906 236.453125 C 340.136719 239.621094 335.851562 239.117188 331.886719 239.136719 Z M 331.886719 239.136719 "/><path style=" stroke:none;fill-rule:nonzero;fill:#2e4fe0;fill-opacity:1;" d="M 343.453125 270 L 178.214844 270.144531 C 170.292969 270.144531 162.058594 270.585938 154.167969 270.078125 C 143.773438 269.414062 140.941406 254.6875 157.453125 253.378906 L 342.753906 253.316406 C 344.65625 253.316406 347.292969 253.042969 349.085938 253.699219 L 349.402344 253.824219 C 355.230469 256.0625 358.371094 263.136719 352.832031 267.820312 C 350.191406 270.058594 346.703125 269.890625 343.453125 270 Z M 343.453125 270 "/></g></svg>