<svg xmlns="http://www.w3.org/2000/svg" xmlns:xlink="http://www.w3.org/1999/xlink" width="700" zoomAndPan="magnify" viewBox="0 0 525 350.250003" height="467" preserveAspectRatio="xMidYMid meet" version="1.2"><g id="a480df7af7"><path style="fill:none;stroke-width:4;stroke-linecap:butt;stroke-linejoin:miter;stroke:#2e4fe0;stroke-opacity:1;stroke-miterlimit:4;" d="M 0.000874272 2.001591 L 21.123855 2.001591 " transform="matrix(0,0.743969,-0.743969,0,452.297716,158.589193)"/><path style=" stroke:none;fill-rule:nonzero;fill:#2e4fe0;fill-opacity:1;" d="M 521.375 170.085938 L 460.796875 5.660156 C 459.894531 3.246094 457.984375 1.351562 455.550781 0.484375 C 453.15625 -0.371094 450.4375 -0.105469 448.222656 1.230469 L 404.953125 27.191406 C 396.628906 32.140625 403.367188 42.085938 405.34375 48.609375 L 382.640625 59.953125 L 326.21875 43.027344 C 304.695312 36.519531 286.039062 40.59375 273.558594 54.398438 C 273.457031 54.414062 252.160156 75.800781 252.070312 75.851562 C 238.296875 66.210938 221.453125 62.203125 204.726562 64.828125 L 138.75 74.953125 C 133.253906 75.808594 127.644531 75.210938 122.210938 73.273438 L 129.886719 55.539062 C 131.921875 51.109375 129.445312 45.441406 124.796875 43.925781 C 124.796875 43.925781 74.761719 26.4375 74.761719 26.4375 C 70.398438 24.914062 65.648438 27.050781 63.902344 31.308594 L 3.324219 178.433594 C 1.695312 182.390625 3.203125 186.941406 6.871094 189.148438 L 50.140625 215.109375 C 54.804688 218.042969 61.289062 215.464844 62.914062 210.265625 L 68.289062 214.289062 L 70.054688 215.414062 C 65.476562 225.640625 67.984375 238.078125 76.804688 245.667969 C 76.804688 245.667969 76.820312 245.667969 76.832031 245.683594 C 80.03125 248.679688 83.855469 250.667969 87.949219 251.75 C 81.996094 270.332031 101.605469 290.746094 120.59375 285.269531 C 124.996094 298.636719 141 308.183594 154.636719 303.527344 C 162.773438 324.46875 190.707031 329.679688 203.6875 309.941406 L 220.183594 329.75 C 235.34375 347.957031 262.222656 336.949219 269.527344 317.332031 C 279.679688 322.601562 291.949219 321.804688 301.296875 314.820312 C 301.433594 314.734375 302.074219 314.292969 302.195312 314.207031 C 307.222656 310.417969 310.917969 305.164062 312.875 299.261719 C 333.660156 311.6875 361.785156 291.792969 357.164062 267.996094 C 374.238281 266.351562 386.988281 248.1875 382.644531 231.5 L 457.414062 189.945312 L 461.859375 202.027344 C 463.574219 207 469.96875 209.277344 474.433594 206.457031 C 474.433594 206.457031 517.703125 180.496094 517.703125 180.496094 C 521.269531 178.355469 522.808594 173.988281 521.375 170.085938 Z M 50.582031 195.1875 L 22.164062 178.132812 L 76.785156 45.484375 L 110.304688 57.203125 Z M 87.761719 232.203125 C 84.429688 229.078125 84.109375 223.867188 87.042969 220.355469 L 105.691406 197.96875 C 113.261719 188.863281 127.488281 201.644531 120.003906 210.386719 C 120.003906 210.386719 101.148438 232.382812 101.148438 232.382812 C 99.597656 234.191406 97.433594 235.257812 95.0625 235.386719 C 92.078125 235.679688 89.679688 234.234375 87.75 232.210938 Z M 114.535156 268.765625 C 107.074219 269.078125 100.800781 259.089844 106.289062 253.09375 C 106.289062 253.09375 135.867188 218.902344 135.867188 218.902344 C 137.46875 217.050781 139.683594 215.984375 142.132812 215.90625 C 149.566406 215.671875 155.617188 225.488281 150.199219 231.421875 C 150.199219 231.421875 120.765625 265.753906 120.765625 265.753906 C 119.183594 267.605469 116.976562 268.667969 114.535156 268.765625 Z M 159.09375 278.1875 C 159.101562 278.230469 153.972656 284.308594 153.960938 284.351562 C 150.96875 287.933594 145.578125 288.496094 141.933594 285.597656 C 139.355469 283.753906 136.75 281.339844 136.59375 277.957031 C 136.367188 275.59375 137.097656 273.300781 138.636719 271.5 L 161.507812 244.820312 C 163.09375 242.96875 165.300781 241.902344 167.738281 241.808594 C 174.707031 241.410156 181.90625 251.09375 176.289062 257.558594 C 175.8125 258.113281 160.175781 276.898438 159.09375 278.1875 Z M 202.582031 283.605469 L 188 301.832031 C 182.175781 309.136719 171.21875 302.574219 170.449219 295.859375 C 170.164062 293.464844 170.847656 291.136719 172.386719 289.292969 L 183.929688 275.4375 C 186.421875 272.503906 189.410156 267.785156 193.824219 267.960938 C 201.195312 267.699219 207.84375 277.410156 202.582031 283.613281 Z M 361.035156 248.453125 C 356.792969 251.621094 350.988281 251.882812 346.3125 248.878906 C 345.8125 250.074219 314.128906 210.871094 313.265625 210.132812 C 311.179688 207.609375 307.960938 206.699219 304.949219 207.289062 C 298.613281 208.1875 295.738281 216.398438 299.945312 221.195312 C 299.945312 221.195312 306.296875 228.820312 306.296875 228.820312 C 310.242188 232.980469 331.160156 260.222656 335.832031 262.601562 C 349.210938 275.757812 329.585938 294.570312 317.234375 281.167969 C 317.234375 281.167969 282.550781 240.742188 282.550781 240.742188 L 281.148438 239.109375 L 279.738281 237.402344 L 279.660156 237.472656 C 273.109375 226.714844 257.636719 237.378906 265.382812 247.214844 C 265.539062 247.414062 265.695312 247.625 265.867188 247.804688 C 266.117188 248.097656 266.445312 248.488281 266.480469 248.53125 C 266.558594 248.617188 266.75 248.835938 266.949219 249.050781 L 267.917969 250.273438 C 274.441406 258.128906 284.152344 269.699219 293.914062 280.957031 C 298.898438 286.261719 297.84375 296.015625 292.175781 300.136719 C 286.308594 304.972656 277.714844 304.410156 272.960938 298.378906 C 272.960938 298.378906 265.320312 288.789062 265.320312 288.789062 C 265.15625 288.546875 264.984375 288.304688 264.800781 288.082031 C 262.59375 285.328125 246.722656 265.441406 244.121094 262.195312 C 241.140625 258.46875 235.671875 257.84375 231.960938 260.839844 C 228.152344 263.875 227.617188 269.472656 230.757812 273.195312 L 251.078125 298.636719 C 251.207031 298.828125 251.335938 299.027344 251.476562 299.210938 C 255.855469 305.007812 254.730469 312.996094 248.941406 317.375 C 244.34375 321.554688 238.3125 324.191406 233.484375 318.707031 C 233.484375 318.707031 214.722656 296.171875 214.722656 296.171875 C 230.402344 279.660156 217.757812 251.949219 195.613281 250.84375 C 195.191406 237.644531 183.03125 225.3125 169.582031 224.726562 C 169.289062 209.910156 153.667969 196.003906 138.664062 199.039062 C 136.03125 186.976562 124.445312 177.335938 111.871094 177.578125 C 97.574219 176.851562 88.347656 192.054688 80.265625 201.453125 L 78.128906 200.097656 L 69.96875 193.96875 L 115.261719 89.335938 C 123.578125 92.5 132.605469 93.488281 141.398438 92.085938 L 197.035156 83.546875 C 211.277344 80.480469 227.027344 80.144531 239.558594 88.390625 L 197.742188 130.207031 C 193.277344 134.664062 191.226562 141.042969 192.230469 147.273438 C 198.132812 171.242188 234.261719 171.070312 252.039062 160.808594 C 252.039062 160.808594 287.640625 141.023438 287.640625 141.023438 C 290.097656 144.132812 360.871094 226.8125 364.433594 231.71875 C 367.621094 237.238281 366.132812 244.714844 361.015625 248.480469 Z M 374.335938 216.332031 L 303.078125 132.429688 L 309.769531 128.71875 C 313.949219 126.390625 315.453125 121.128906 313.132812 116.957031 C 310.816406 112.785156 305.542969 111.261719 301.375 113.589844 L 243.660156 145.652344 C 233.527344 151.269531 221.28125 151.554688 210.621094 146.207031 C 209.675781 145.730469 209.40625 144.917969 209.347656 144.476562 C 209.269531 144.027344 209.261719 143.171875 210.003906 142.425781 C 210.5 141.984375 285.753906 66.667969 286.125 66.289062 C 296.035156 55.003906 310.683594 56.40625 321.269531 59.597656 L 380.980469 77.511719 C 383.082031 78.144531 385.359375 77.953125 387.332031 76.96875 L 411.375 64.949219 L 451.371094 173.511719 L 374.34375 216.320312 Z M 474.496094 186.25 L 420.011719 38.355469 L 448.179688 21.453125 L 502.664062 169.347656 Z M 474.496094 186.25 "/></g></svg>