<svg xmlns="http://www.w3.org/2000/svg" xmlns:xlink="http://www.w3.org/1999/xlink" width="365" zoomAndPan="magnify" viewBox="0 0 273.75 372.749993" height="497" preserveAspectRatio="xMidYMid meet" version="1.2"><defs><clipPath id="fe6e72526f"><path d="M 119 0.046875 L 183 0.046875 L 183 159 L 119 159 Z M 119 0.046875 "/></clipPath><clipPath id="32a11c09e5"><path d="M 0.300781 27.515625 L 272.894531 27.515625 L 272.894531 371.6875 L 0.300781 371.6875 Z M 0.300781 27.515625 "/></clipPath></defs><g id="ef3d1bf1e7"><path style="fill:none;stroke-width:4;stroke-linecap:butt;stroke-linejoin:miter;stroke:#2e4fe0;stroke-opacity:1;stroke-miterlimit:4;" d="M -0.00131597 1.99924 L 21.127244 1.99924 " transform="matrix(0,0.744882,-0.744882,0,265.664979,214.743168)"/><g clip-rule="nonzero" clip-path="url(#fe6e72526f)"><path style=" stroke:none;fill-rule:nonzero;fill:#2e4fe0;fill-opacity:1;" d="M 169.796875 158.226562 L 169.796875 26.867188 C 169.796875 23.078125 167.820312 19.558594 164.625 16.9375 C 161.09375 14.046875 156.152344 12.253906 150.609375 12.253906 C 145.070312 12.253906 140.128906 14.046875 136.597656 16.9375 C 133.398438 19.554688 131.425781 23.078125 131.425781 26.867188 L 131.425781 158.226562 L 119.21875 158.226562 L 119.21875 26.867188 C 119.21875 19.238281 122.902344 12.386719 128.871094 7.492188 C 134.484375 2.894531 142.164062 0.046875 150.609375 0.046875 C 159.050781 0.046875 166.734375 2.898438 172.347656 7.492188 C 178.320312 12.386719 182.003906 19.238281 182.003906 26.867188 L 182.003906 158.226562 L 169.796875 158.226562 "/></g><path style=" stroke:none;fill-rule:nonzero;fill:#2e4fe0;fill-opacity:1;" d="M 218.460938 172.066406 L 218.460938 40.710938 C 218.460938 36.894531 216.492188 33.378906 213.308594 30.769531 C 209.78125 27.882812 204.828125 26.097656 199.273438 26.097656 C 193.457031 26.097656 188.757812 27.257812 185.714844 29.53125 C 183.359375 31.289062 182.003906 33.945312 182.003906 37.460938 L 169.796875 37.460938 C 169.796875 29.785156 172.941406 23.847656 178.417969 19.753906 C 183.613281 15.871094 190.832031 13.886719 199.273438 13.886719 C 207.730469 13.886719 215.417969 16.726562 221.03125 21.328125 C 226.992188 26.207031 230.667969 33.050781 230.667969 40.710938 L 230.667969 172.066406 L 218.460938 172.066406 "/><g clip-rule="nonzero" clip-path="url(#32a11c09e5)"><path style=" stroke:none;fill-rule:nonzero;fill:#2e4fe0;fill-opacity:1;" d="M 119.21875 48.878906 C 119.21875 46.039062 118.011719 44.113281 116.132812 42.863281 C 112.929688 40.738281 107.902344 39.9375 102.683594 39.9375 C 98.632812 39.9375 94.980469 41.566406 92.339844 44.207031 L 92.328125 44.195312 C 89.699219 46.832031 88.074219 50.492188 88.074219 54.550781 L 88.074219 227.339844 L 77.058594 230.941406 L 49.027344 192.601562 L 48.839844 192.316406 C 45.546875 187.257812 40.707031 183.878906 35.523438 182.496094 C 30.535156 181.164062 25.253906 181.707031 20.828125 184.425781 L 20.835938 184.441406 L 20.730469 184.511719 L 20.726562 184.503906 C 16.378906 187.296875 13.664062 191.726562 12.785156 196.660156 C 11.875 201.738281 12.878906 207.355469 16 212.359375 C 30.742188 231.644531 43.285156 250.429688 54.886719 267.808594 C 88.125 317.597656 113.386719 355.4375 161.824219 359.472656 C 252.554688 359.375 260.6875 289.628906 260.6875 268.78125 L 260.6875 82.144531 C 260.6875 78.113281 259.046875 74.460938 256.394531 71.820312 C 253.738281 69.171875 250.054688 67.535156 245.988281 67.535156 C 241.957031 67.535156 238.296875 69.175781 235.644531 71.824219 C 233.007812 74.460938 231.371094 78.113281 231.371094 82.144531 L 219.164062 82.144531 C 219.164062 74.773438 222.1875 68.066406 227.058594 63.191406 C 231.917969 58.335938 238.617188 55.328125 245.988281 55.328125 C 253.386719 55.328125 260.101562 58.335938 264.980469 63.1875 C 269.867188 68.058594 272.894531 74.765625 272.894531 82.144531 L 272.894531 268.78125 C 272.894531 292.457031 263.75 371.6875 161.628906 371.6875 L 161.152344 371.664062 C 106.65625 367.273438 79.945312 327.261719 44.777344 274.578125 C 33.285156 257.367188 20.863281 238.753906 6.179688 219.566406 L 5.890625 219.136719 L 5.808594 219.003906 L 5.785156 218.980469 C 0.929688 211.304688 -0.621094 202.53125 0.8125 194.515625 C 2.285156 186.320312 6.847656 178.921875 14.175781 174.234375 L 14.199219 174.210938 L 14.300781 174.140625 L 14.375 174.117188 C 21.800781 169.507812 30.53125 168.542969 38.671875 170.714844 C 46.542969 172.8125 53.878906 177.882812 58.878906 185.433594 L 75.863281 208.671875 L 75.863281 54.550781 C 75.863281 47.148438 78.859375 40.449219 83.707031 35.597656 L 83.707031 35.574219 C 88.558594 30.722656 95.261719 27.730469 102.683594 27.730469 C 110.003906 27.730469 117.410156 29.085938 122.859375 32.710938 C 128.078125 36.175781 131.425781 41.378906 131.425781 48.878906 L 119.21875 48.878906 "/></g></g></svg>