<svg xmlns="http://www.w3.org/2000/svg" xmlns:xlink="http://www.w3.org/1999/xlink" width="1179" zoomAndPan="magnify" viewBox="0 0 884.25 654.749986" height="873" preserveAspectRatio="xMidYMid meet" version="1.2"><g id="f4527a4dc3"><path style="fill:none;stroke-width:4;stroke-linecap:butt;stroke-linejoin:miter;stroke:#2e4fe0;stroke-opacity:1;stroke-miterlimit:4;" d="M -0.00178232 2.000788 L 21.125404 2.000788 " transform="matrix(0,0.74493,-0.74493,0,817.916229,346.208359)"/><path style=" stroke:none;fill-rule:nonzero;fill:#2e4fe0;fill-opacity:1;" d="M 441.824219 190.835938 L 632.34375 340.855469 L 632.34375 617.148438 L 510.382812 617.148438 L 510.382812 480.828125 C 510.382812 443.203125 479.492188 412.429688 441.8125 412.429688 C 404.132812 412.429688 373.246094 443.203125 373.246094 480.828125 L 373.246094 617.160156 L 251.335938 617.160156 L 251.335938 340.855469 Z M 441.824219 113.902344 L 679.015625 300.753906 C 689.945312 309.410156 687.78125 316.589844 683.710938 322.25 C 681.667969 325.082031 679.015625 326.777344 676.367188 327.222656 C 673.695312 327.679688 670.425781 327.515625 665.039062 323.269531 L 452.382812 155.761719 C 446.234375 150.898438 437.511719 150.898438 431.300781 155.761719 L 218.585938 323.269531 C 213.265625 327.515625 209.996094 327.679688 207.28125 327.222656 C 204.609375 326.777344 201.957031 325.082031 199.917969 322.25 C 195.910156 316.589844 193.703125 309.410156 204.675781 300.753906 Z M 619.84375 42.335938 L 838.539062 213.925781 C 848.21875 221.496094 846.066406 227.101562 842.722656 231.792969 C 841.027344 234.105469 838.777344 235.53125 836.605469 235.867188 C 834.53125 236.214844 831.914062 236.148438 827.167969 232.425781 L 630.304688 78.15625 C 624.132812 73.347656 615.476562 73.347656 609.320312 78.15625 L 530.238281 140.15625 L 512.695312 126.296875 Z M 263.902344 42.335938 L 371.050781 126.285156 L 353.507812 140.089844 L 274.492188 78.15625 C 268.324219 73.292969 259.601562 73.292969 253.441406 78.15625 L 56.578125 232.414062 C 51.820312 236.148438 49.277344 236.214844 47.140625 235.855469 C 44.976562 235.519531 42.773438 234.097656 41.066406 231.78125 C 37.734375 227.089844 35.527344 221.484375 45.207031 213.914062 Z M 263.324219 3.582031 C 259.71875 3.703125 256.265625 5.007812 253.441406 7.199219 L 24.15625 187.035156 C 2.160156 204.304688 0.5 233.714844 13.402344 251.703125 C 19.855469 260.632812 29.761719 267.539062 41.578125 269.472656 C 47.519531 270.484375 53.863281 270.039062 60.03125 268.289062 L 60.03125 512.550781 C 60.03125 521.9375 67.667969 529.582031 77.039062 529.582031 L 183.515625 529.582031 C 193.019531 529.746094 200.871094 522.054688 200.871094 512.550781 C 200.871094 503.003906 193.019531 495.304688 183.515625 495.46875 L 94.082031 495.46875 L 94.082031 246.328125 L 263.902344 113.230469 L 325.953125 161.8125 L 183.558594 273.925781 C 160.261719 292.324219 158.675781 323.214844 172.1875 342.09375 C 178.933594 351.550781 189.285156 358.742188 201.675781 360.816406 C 206.707031 361.621094 211.960938 361.285156 217.230469 360.261719 L 217.230469 634.113281 C 217.230469 643.574219 224.867188 651.199219 234.304688 651.199219 L 390.265625 651.199219 C 399.726562 651.199219 407.359375 643.574219 407.359375 634.113281 L 407.359375 480.828125 C 407.359375 461.578125 422.339844 446.527344 441.8125 446.527344 C 461.265625 446.527344 476.308594 461.570312 476.308594 480.828125 L 476.308594 634.113281 C 476.265625 643.574219 483.945312 651.199219 493.40625 651.199219 L 649.3125 651.199219 C 658.75 651.199219 666.449219 643.574219 666.386719 634.113281 L 666.386719 360.261719 C 671.640625 361.285156 676.910156 361.621094 681.960938 360.816406 C 694.398438 358.742188 704.703125 351.550781 711.492188 342.09375 C 725.003906 323.214844 723.375 292.324219 700.054688 273.925781 L 557.769531 161.8125 L 619.84375 113.230469 L 789.664062 246.328125 L 789.664062 495.46875 L 700.164062 495.46875 C 690.617188 495.304688 682.808594 502.996094 682.808594 512.550781 C 682.808594 522.054688 690.617188 529.746094 700.164062 529.582031 L 806.640625 529.582031 C 816.035156 529.582031 823.671875 522.003906 823.714844 512.550781 L 823.714844 268.289062 C 829.949219 270.046875 836.269531 270.492188 842.210938 269.472656 C 854.09375 267.539062 863.933594 260.640625 870.386719 251.703125 C 883.289062 233.714844 881.585938 204.304688 859.589844 187.035156 L 630.304688 7.199219 C 627.1875 4.765625 623.285156 3.484375 619.269531 3.582031 C 615.640625 3.703125 612.144531 5.007812 609.320312 7.199219 L 485.128906 104.617188 L 452.371094 78.832031 C 449.210938 76.34375 445.246094 75.03125 441.238281 75.214844 C 437.609375 75.324219 434.175781 76.5625 431.289062 78.832031 L 398.574219 104.5625 L 274.46875 7.199219 C 271.296875 4.722656 267.355469 3.484375 263.324219 3.582031 Z M 263.324219 3.582031 "/></g></svg>