<svg xmlns="http://www.w3.org/2000/svg" xmlns:xlink="http://www.w3.org/1999/xlink" width="439" zoomAndPan="magnify" viewBox="0 0 329.25 276.749996" height="369" preserveAspectRatio="xMidYMid meet" version="1.2"><defs><clipPath id="af580ce486"><path d="M 0 0.191406 L 328.5 0.191406 L 328.5 276.3125 L 0 276.3125 Z M 0 0.191406 "/></clipPath></defs><g id="7028ab88af"><path style="fill:none;stroke-width:4;stroke-linecap:butt;stroke-linejoin:miter;stroke:#2e4fe0;stroke-opacity:1;stroke-miterlimit:4;" d="M -0.000577929 2.002371 L 21.125281 2.002371 " transform="matrix(0,0.743868,-0.743868,0,47.079343,159.762149)"/><g clip-rule="nonzero" clip-path="url(#af580ce486)"><path style=" stroke:none;fill-rule:nonzero;fill:#2e4fe0;fill-opacity:1;" d="M 189.191406 268.804688 L 189.191406 201.683594 L 131.367188 201.683594 L 131.367188 268.796875 C 131.367188 269.277344 131.320312 269.75 131.226562 270.21875 C 131.132812 270.683594 130.996094 271.140625 130.8125 271.582031 C 130.632812 272.023438 130.40625 272.441406 130.144531 272.839844 C 129.878906 273.238281 129.578125 273.605469 129.242188 273.941406 C 128.902344 274.28125 128.535156 274.582031 128.140625 274.847656 C 127.742188 275.113281 127.324219 275.339844 126.886719 275.523438 C 126.445312 275.707031 125.988281 275.847656 125.523438 275.941406 C 125.054688 276.035156 124.582031 276.085938 124.105469 276.085938 L 47.710938 276.085938 C 47.230469 276.085938 46.757812 276.039062 46.289062 275.945312 C 45.820312 275.851562 45.367188 275.714844 44.925781 275.53125 C 44.484375 275.347656 44.0625 275.121094 43.664062 274.855469 C 43.269531 274.589844 42.902344 274.289062 42.5625 273.953125 C 42.226562 273.613281 41.921875 273.246094 41.65625 272.847656 C 41.390625 272.453125 41.167969 272.03125 40.984375 271.589844 C 40.800781 271.148438 40.664062 270.695312 40.570312 270.226562 C 40.476562 269.757812 40.429688 269.28125 40.429688 268.804688 L 40.429688 136.695312 C 40.429688 136.339844 40.460938 135.992188 40.53125 135.644531 C 40.601562 135.296875 40.703125 134.960938 40.835938 134.632812 C 40.972656 134.308594 41.140625 133.996094 41.335938 133.703125 C 41.53125 133.410156 41.753906 133.136719 42.003906 132.886719 C 42.253906 132.636719 42.527344 132.414062 42.820312 132.21875 C 43.113281 132.023438 43.425781 131.855469 43.75 131.722656 C 44.078125 131.585938 44.414062 131.484375 44.761719 131.414062 C 45.105469 131.347656 45.457031 131.3125 45.808594 131.3125 C 46.164062 131.3125 46.515625 131.347656 46.859375 131.414062 C 47.207031 131.484375 47.542969 131.585938 47.871094 131.722656 C 48.195312 131.855469 48.507812 132.023438 48.800781 132.21875 C 49.09375 132.414062 49.367188 132.636719 49.617188 132.886719 C 49.867188 133.136719 50.089844 133.410156 50.285156 133.703125 C 50.480469 133.996094 50.648438 134.308594 50.78125 134.632812 C 50.917969 134.960938 51.019531 135.296875 51.089844 135.644531 C 51.160156 135.992188 51.191406 136.339844 51.191406 136.695312 L 51.191406 265.316406 L 120.601562 265.316406 L 120.601562 198.199219 C 120.601562 197.722656 120.648438 197.246094 120.742188 196.777344 C 120.835938 196.308594 120.972656 195.855469 121.15625 195.414062 C 121.339844 194.972656 121.5625 194.550781 121.828125 194.15625 C 122.09375 193.757812 122.398438 193.390625 122.734375 193.050781 C 123.074219 192.714844 123.441406 192.414062 123.839844 192.148438 C 124.234375 191.882812 124.65625 191.65625 125.097656 191.472656 C 125.539062 191.289062 125.992188 191.152344 126.460938 191.058594 C 126.929688 190.964844 127.402344 190.917969 127.882812 190.917969 L 192.707031 190.917969 C 193.183594 190.917969 193.65625 190.964844 194.125 191.058594 C 194.59375 191.152344 195.050781 191.289062 195.492188 191.472656 C 195.933594 191.65625 196.351562 191.882812 196.75 192.148438 C 197.148438 192.414062 197.515625 192.714844 197.851562 193.050781 C 198.191406 193.390625 198.492188 193.757812 198.757812 194.15625 C 199.023438 194.550781 199.25 194.972656 199.433594 195.414062 C 199.613281 195.855469 199.753906 196.308594 199.847656 196.777344 C 199.941406 197.246094 199.988281 197.722656 199.988281 198.199219 L 199.988281 265.316406 L 269.394531 265.316406 L 269.394531 136.695312 C 269.394531 136.339844 269.429688 135.992188 269.5 135.644531 C 269.566406 135.296875 269.671875 134.960938 269.804688 134.632812 C 269.941406 134.308594 270.105469 133.996094 270.300781 133.703125 C 270.5 133.410156 270.722656 133.136719 270.972656 132.886719 C 271.222656 132.636719 271.492188 132.414062 271.789062 132.21875 C 272.082031 132.023438 272.390625 131.855469 272.71875 131.722656 C 273.042969 131.585938 273.382812 131.484375 273.726562 131.414062 C 274.074219 131.347656 274.425781 131.3125 274.777344 131.3125 C 275.132812 131.3125 275.480469 131.347656 275.828125 131.414062 C 276.175781 131.484375 276.511719 131.585938 276.835938 131.722656 C 277.164062 131.855469 277.472656 132.023438 277.769531 132.21875 C 278.0625 132.414062 278.335938 132.636719 278.582031 132.886719 C 278.832031 133.136719 279.058594 133.410156 279.253906 133.703125 C 279.449219 133.996094 279.617188 134.308594 279.75 134.632812 C 279.886719 134.960938 279.988281 135.296875 280.058594 135.644531 C 280.125 135.992188 280.160156 136.339844 280.160156 136.695312 L 280.160156 268.804688 C 280.160156 269.28125 280.113281 269.757812 280.019531 270.226562 C 279.925781 270.695312 279.789062 271.148438 279.605469 271.589844 C 279.421875 272.03125 279.195312 272.453125 278.929688 272.847656 C 278.664062 273.246094 278.363281 273.613281 278.027344 273.953125 C 277.6875 274.289062 277.320312 274.589844 276.921875 274.855469 C 276.527344 275.121094 276.105469 275.347656 275.664062 275.53125 C 275.222656 275.714844 274.769531 275.851562 274.300781 275.945312 C 273.832031 276.039062 273.355469 276.085938 272.878906 276.085938 L 196.476562 276.085938 C 196 276.085938 195.527344 276.039062 195.058594 275.945312 C 194.589844 275.851562 194.132812 275.714844 193.691406 275.53125 C 193.25 275.347656 192.828125 275.125 192.429688 274.859375 C 192.035156 274.59375 191.664062 274.292969 191.328125 273.953125 C 190.988281 273.617188 190.6875 273.25 190.421875 272.851562 C 190.15625 272.453125 189.929688 272.035156 189.746094 271.59375 C 189.5625 271.148438 189.425781 270.695312 189.332031 270.226562 C 189.238281 269.757812 189.191406 269.285156 189.191406 268.804688 Z M 318.910156 141.933594 C 319.175781 142.199219 319.464844 142.433594 319.777344 142.636719 C 320.089844 142.839844 320.421875 143.011719 320.769531 143.148438 C 321.117188 143.28125 321.476562 143.378906 321.847656 143.441406 C 322.214844 143.503906 322.585938 143.523438 322.960938 143.507812 C 323.332031 143.492188 323.703125 143.4375 324.0625 143.34375 C 324.425781 143.25 324.773438 143.121094 325.109375 142.953125 C 325.445312 142.789062 325.757812 142.589844 326.054688 142.355469 C 326.347656 142.125 326.613281 141.867188 326.851562 141.578125 C 327.09375 141.292969 327.300781 140.984375 327.476562 140.652344 C 327.652344 140.320312 327.789062 139.976562 327.894531 139.617188 C 327.996094 139.257812 328.0625 138.890625 328.089844 138.519531 C 328.117188 138.144531 328.105469 137.773438 328.054688 137.402344 C 328.003906 137.03125 327.914062 136.671875 327.789062 136.320312 C 327.664062 135.96875 327.503906 135.632812 327.308594 135.3125 C 327.109375 134.996094 326.882812 134.699219 326.628906 134.429688 C 326.371094 134.15625 326.085938 133.914062 325.78125 133.703125 L 168.714844 2.476562 C 168.390625 2.203125 168.042969 1.960938 167.675781 1.75 C 167.308594 1.539062 166.925781 1.363281 166.53125 1.21875 C 166.132812 1.074219 165.722656 0.964844 165.308594 0.890625 C 164.890625 0.816406 164.46875 0.78125 164.046875 0.78125 C 163.621094 0.78125 163.203125 0.816406 162.785156 0.890625 C 162.367188 0.964844 161.960938 1.074219 161.5625 1.21875 C 161.164062 1.363281 160.78125 1.539062 160.414062 1.75 C 160.046875 1.960938 159.703125 2.203125 159.378906 2.476562 L 2.3125 133.703125 C 2.042969 133.929688 1.792969 134.179688 1.574219 134.453125 C 1.351562 134.730469 1.15625 135.023438 0.996094 135.335938 C 0.832031 135.648438 0.699219 135.976562 0.597656 136.316406 C 0.5 136.65625 0.433594 137 0.402344 137.351562 C 0.371094 137.703125 0.375 138.054688 0.410156 138.40625 C 0.449219 138.757812 0.519531 139.101562 0.625 139.441406 C 0.730469 139.777344 0.867188 140.101562 1.039062 140.410156 C 1.207031 140.722656 1.40625 141.011719 1.632812 141.285156 C 1.859375 141.554688 2.109375 141.800781 2.382812 142.023438 C 2.660156 142.246094 2.953125 142.4375 3.265625 142.601562 C 3.578125 142.765625 3.90625 142.898438 4.246094 143 C 4.585938 143.097656 4.929688 143.164062 5.28125 143.195312 C 5.632812 143.226562 5.984375 143.222656 6.335938 143.1875 C 6.6875 143.148438 7.03125 143.078125 7.371094 142.972656 C 7.707031 142.867188 8.03125 142.726562 8.339844 142.558594 C 8.652344 142.390625 8.941406 142.191406 9.214844 141.964844 L 164.046875 12.597656 Z M 215.507812 18.367188 L 256.28125 18.367188 L 256.28125 59.140625 C 256.28125 59.492188 256.316406 59.84375 256.382812 60.191406 C 256.453125 60.539062 256.554688 60.875 256.691406 61.199219 C 256.824219 61.527344 256.992188 61.835938 257.1875 62.132812 C 257.382812 62.425781 257.605469 62.695312 257.855469 62.945312 C 258.105469 63.195312 258.378906 63.417969 258.671875 63.617188 C 258.964844 63.8125 259.277344 63.976562 259.601562 64.113281 C 259.929688 64.25 260.265625 64.351562 260.613281 64.417969 C 260.960938 64.488281 261.308594 64.523438 261.664062 64.523438 C 262.015625 64.523438 262.367188 64.488281 262.710938 64.417969 C 263.058594 64.351562 263.394531 64.25 263.722656 64.113281 C 264.046875 63.976562 264.359375 63.8125 264.652344 63.617188 C 264.945312 63.417969 265.21875 63.195312 265.46875 62.945312 C 265.71875 62.695312 265.941406 62.425781 266.136719 62.132812 C 266.335938 61.835938 266.5 61.527344 266.636719 61.199219 C 266.769531 60.875 266.871094 60.539062 266.941406 60.191406 C 267.011719 59.84375 267.046875 59.492188 267.046875 59.140625 L 267.046875 14.882812 C 267.042969 14.40625 266.996094 13.933594 266.902344 13.464844 C 266.808594 12.996094 266.671875 12.539062 266.488281 12.097656 C 266.304688 11.65625 266.082031 11.238281 265.816406 10.839844 C 265.550781 10.441406 265.25 10.074219 264.910156 9.738281 C 264.574219 9.398438 264.203125 9.097656 263.808594 8.832031 C 263.410156 8.566406 262.992188 8.339844 262.550781 8.15625 C 262.109375 7.976562 261.652344 7.835938 261.183594 7.742188 C 260.714844 7.648438 260.242188 7.601562 259.765625 7.601562 L 215.507812 7.601562 C 215.152344 7.601562 214.800781 7.636719 214.457031 7.707031 C 214.109375 7.773438 213.773438 7.875 213.445312 8.011719 C 213.121094 8.144531 212.808594 8.3125 212.515625 8.507812 C 212.222656 8.703125 211.949219 8.929688 211.699219 9.179688 C 211.449219 9.425781 211.226562 9.699219 211.03125 9.992188 C 210.832031 10.289062 210.667969 10.597656 210.53125 10.925781 C 210.398438 11.25 210.292969 11.585938 210.226562 11.933594 C 210.15625 12.28125 210.121094 12.632812 210.121094 12.984375 C 210.121094 13.339844 210.15625 13.6875 210.226562 14.035156 C 210.292969 14.382812 210.398438 14.71875 210.53125 15.042969 C 210.667969 15.371094 210.832031 15.679688 211.03125 15.976562 C 211.226562 16.269531 211.449219 16.542969 211.699219 16.789062 C 211.949219 17.039062 212.222656 17.265625 212.515625 17.460938 C 212.808594 17.65625 213.121094 17.824219 213.445312 17.957031 C 213.773438 18.09375 214.109375 18.195312 214.457031 18.265625 C 214.800781 18.332031 215.152344 18.367188 215.507812 18.367188 Z M 215.507812 18.367188 "/></g></g></svg>