<svg xmlns="http://www.w3.org/2000/svg" xmlns:xlink="http://www.w3.org/1999/xlink" width="309" zoomAndPan="magnify" viewBox="0 0 231.75 302.250004" height="403" preserveAspectRatio="xMidYMid meet" version="1.2"><defs><clipPath id="4a53973c3f"><path d="M 0.164062 0 L 230.589844 0 L 230.589844 301.5 L 0.164062 301.5 Z M 0.164062 0 "/></clipPath></defs><g id="c0233ac13c"><g clip-rule="nonzero" clip-path="url(#4a53973c3f)"><path style=" stroke:none;fill-rule:nonzero;fill:#2e4fe0;fill-opacity:1;" d="M 142.820312 212.53125 C 144.121094 217.195312 145.222656 221.765625 146.207031 226.261719 C 147.21875 230.863281 148.144531 235.496094 149.050781 240.089844 L 150.402344 247.058594 C 152.238281 256.566406 154.105469 266.253906 156.746094 275.472656 L 156.773438 275.578125 L 156.777344 275.578125 C 158 279.839844 160.796875 289.589844 164.054688 289.667969 C 167.066406 289.746094 169.789062 288.929688 172.214844 287.558594 C 175.351562 285.785156 178.078125 283.070312 180.34375 280.082031 C 184.738281 274.285156 188.082031 266.824219 190.628906 258.96875 C 193.253906 250.867188 195.015625 242.40625 196.21875 234.859375 C 197.898438 224.328125 198.085938 213.113281 197.371094 201.832031 C 196.644531 190.410156 194.988281 178.976562 192.984375 168.132812 C 190.554688 154.972656 192.105469 152.21875 196.066406 145.1875 C 197.128906 143.300781 198.414062 141.019531 199.78125 138.054688 C 204.046875 128.851562 208.105469 119.074219 211.363281 109.074219 C 214.59375 99.191406 217.039062 89.078125 218.152344 79.089844 C 219.027344 71.257812 218.871094 63.335938 217.640625 55.847656 C 215.890625 45.207031 211.96875 35.445312 205.710938 28.109375 C 199.652344 21 191.285156 16.117188 180.449219 14.914062 C 175.769531 14.394531 170.617188 14.542969 164.988281 15.46875 C 158.640625 16.511719 150.496094 20.035156 144.097656 22.796875 L 144.089844 22.796875 L 144.097656 22.820312 L 142.898438 23.335938 C 141.078125 24.121094 140.621094 24.332031 139.914062 24.640625 C 132.957031 27.75 119.714844 33.675781 115.050781 33.675781 C 107.863281 33.675781 95.402344 27.167969 88.460938 23.550781 L 88.449219 23.5625 L 86.6875 22.648438 L 86.386719 22.480469 L 84.621094 21.5625 L 84.601562 21.558594 L 84.601562 21.5625 C 77.980469 18.117188 69.125 13.511719 63.046875 12.519531 C 56.941406 11.523438 51.476562 11.476562 46.625 12.222656 L 46.621094 12.222656 L 46.625 12.246094 C 36.855469 13.753906 29.367188 18.53125 23.949219 25.285156 C 18.3125 32.304688 14.785156 41.5 13.15625 51.464844 C 11.722656 60.253906 11.777344 69.644531 13.175781 78.699219 C 14.714844 88.660156 17.589844 98.753906 21.238281 108.644531 C 24.9375 118.683594 29.421875 128.5 34.117188 137.769531 C 35.644531 140.785156 37.058594 143.125 38.222656 145.046875 C 42.480469 152.105469 44.035156 154.683594 42.195312 167.75 C 40.667969 178.550781 39.488281 189.964844 39.25 201.289062 C 39.011719 212.566406 39.6875 223.847656 41.84375 234.496094 C 43.34375 241.90625 45.460938 250.34375 48.464844 258.53125 C 51.363281 266.445312 55.070312 274 59.777344 279.875 C 62.234375 282.941406 65.140625 285.691406 68.398438 287.496094 C 70.96875 288.910156 73.78125 289.746094 76.789062 289.667969 C 79.753906 289.59375 82.0625 280.152344 83.082031 275.945312 L 83.070312 275.9375 L 83.101562 275.828125 C 83.132812 275.699219 83.164062 275.570312 83.203125 275.449219 C 85.351562 266.515625 86.800781 256.847656 88.21875 247.34375 C 88.328125 246.59375 88.445312 245.8125 89.292969 240.34375 C 90.066406 235.324219 90.84375 230.367188 91.515625 226.550781 C 92.339844 221.871094 93.257812 217.222656 94.335938 212.652344 L 94.40625 212.394531 C 95.96875 205.832031 97.816406 200.085938 101.417969 195.519531 C 105.398438 190.46875 111.058594 187.242188 119.886719 186.578125 C 135.222656 185.414062 140.007812 202.476562 142.640625 211.886719 L 142.644531 211.882812 L 142.761719 212.296875 Z M 29.402344 63.109375 C 29.863281 52.335938 32.914062 39.242188 41.109375 32.515625 C 46.734375 27.898438 53.949219 27.503906 61.222656 28.6875 C 65.382812 29.414062 75.402344 34.953125 79.28125 36.957031 L 83.691406 39.238281 C 82.429688 38.871094 81.207031 38.578125 80.050781 38.386719 C 54.140625 34.15625 37.804688 45.664062 29.402344 63.109375 Z M 135.011719 228.675781 C 134.027344 224.191406 132.972656 219.800781 131.8125 215.621094 L 131.742188 215.390625 L 131.628906 214.972656 L 131.632812 214.972656 L 131.628906 214.953125 C 129.898438 208.769531 126.757812 197.539062 120.734375 197.996094 C 115.558594 198.382812 112.433594 200.039062 110.421875 202.59375 C 108.117188 205.511719 106.765625 209.902344 105.539062 215.058594 L 105.488281 215.296875 C 104.453125 219.660156 103.582031 224.085938 102.800781 228.519531 C 101.863281 233.8125 101.207031 238.015625 100.578125 242.089844 L 99.550781 248.996094 C 98.105469 258.652344 96.632812 268.476562 94.3125 278.128906 L 94.25 278.429688 L 94.222656 278.539062 L 94.214844 278.535156 L 94.203125 278.582031 C 92.550781 285.371094 88.8125 300.789062 77.054688 301.09375 C 71.839844 301.222656 67.109375 299.847656 62.890625 297.527344 C 58.195312 294.933594 54.171875 291.167969 50.863281 287.039062 C 45.273438 280.0625 40.988281 271.410156 37.714844 262.472656 C 34.539062 253.816406 32.269531 244.746094 30.648438 236.734375 C 28.3125 225.195312 27.578125 213.097656 27.832031 201.070312 C 28.082031 189.097656 29.296875 177.269531 30.863281 166.179688 C 32.140625 157.136719 31.140625 155.476562 28.410156 150.960938 C 27.203125 148.953125 25.726562 146.515625 23.90625 142.921875 C 19.011719 133.253906 14.339844 123.023438 10.488281 112.585938 C 6.582031 102 3.5 91.167969 1.84375 80.449219 C 0.277344 70.292969 0.230469 59.675781 1.871094 49.625 C 3.804688 37.804688 8.097656 26.761719 15.035156 18.117188 C 22.195312 9.207031 32.046875 2.898438 44.878906 0.917969 L 44.882812 0.9375 C 50.925781 0.0078125 57.589844 0.0429688 64.882812 1.234375 C 72.855469 2.539062 82.597656 7.605469 89.886719 11.398438 L 89.878906 11.410156 L 91.65625 12.332031 L 91.972656 12.484375 L 93.738281 13.398438 L 93.726562 13.414062 L 93.738281 13.421875 C 99.757812 16.566406 110.570312 22.210938 115.050781 22.210938 C 117.363281 22.210938 129.09375 16.960938 135.257812 14.210938 C 137.109375 13.386719 137.996094 12.976562 138.375 12.816406 L 139.570312 12.296875 L 139.578125 12.316406 C 146.578125 9.292969 155.476562 5.445312 163.152344 4.183594 C 169.855469 3.082031 176.039062 2.90625 181.703125 3.539062 C 195.695312 5.09375 206.523438 11.4375 214.402344 20.671875 C 222.078125 29.679688 226.851562 41.398438 228.925781 54.011719 C 230.328125 62.550781 230.507812 71.523438 229.53125 80.34375 C 228.324219 91.171875 225.699219 102.042969 222.25 112.613281 C 218.835938 123.078125 214.613281 133.265625 210.175781 142.847656 C 208.550781 146.351562 207.183594 148.777344 206.054688 150.789062 C 203.539062 155.257812 202.554688 157.003906 204.230469 166.074219 C 206.304688 177.359375 208.035156 189.253906 208.789062 201.117188 C 209.554688 213.125 209.332031 225.171875 207.503906 236.652344 C 206.21875 244.714844 204.332031 253.769531 201.511719 262.460938 C 198.613281 271.398438 194.710938 280.019531 189.433594 286.980469 C 186.328125 291.074219 182.460938 294.878906 177.8125 297.496094 C 173.683594 299.832031 169.007812 301.222656 163.785156 301.09375 C 152.089844 300.796875 147.6875 285.425781 145.757812 278.714844 L 145.726562 278.605469 C 142.984375 269.035156 141.054688 259.027344 139.160156 249.207031 C 138.792969 247.3125 138.449219 245.53125 137.804688 242.285156 C 136.914062 237.769531 136.003906 233.210938 135.011719 228.675781 Z M 135.011719 228.675781 "/></g><path style="fill:none;stroke-width:4;stroke-linecap:butt;stroke-linejoin:miter;stroke:#2e4fe0;stroke-opacity:1;stroke-miterlimit:4;" d="M 0.000163052 1.998807 L 21.125059 1.998807 " transform="matrix(0,0.743717,-0.743717,0,217.498265,100.089722)"/></g></svg>